<svg class="icon" style="width: 1.06640625em;height: 1em;vertical-align: middle;fill: currentColor;overflow: hidden;" viewBox="0 0 1092 1024" version="1.1" xmlns="http://www.w3.org/2000/svg"><path d="M888.79834619 892.57953887h-173.09965341l204.77959013-261.59947647a31.73993614 31.73993614 0 0 0 2.69999472-35.99992792 39.4199209 39.4199209 0 0 0-34.31993115-18.7199631H641.23884161c-21.35995752 0-38.69992266 15.59996894-38.69992267 34.73993057 0 19.19996191 17.33996513 34.73993057 38.69992266 34.73993057h173.15965371l-204.83959043 261.59947646a31.73993614 31.73993614 0 0 0-2.63999443 35.99992794c6.59998652 11.39997744 19.85995987 18.65996279 34.31993115 18.65996279h247.61950488c21.35995752 0 38.69992266-15.59996894 38.69992266-34.73993057 0-19.13996162-17.39996542-34.67993028-38.69992266-34.67993027zM798.79852636 83.90115635A35.2199294 35.2199294 0 0 0 765.91859258 62.00119971a35.2199294 35.2199294 0 0 0-32.81993438 21.71995664L604.99891425 400.94052208a33.95993203 33.95993203 0 0 0 19.85995987 44.39991092 35.2199294 35.2199294 0 0 0 45.59990888-19.31996073l23.21995343-57.35988545h143.03971406l22.79995488 57.05988574c7.01998594 17.63996484 27.41994492 26.39994697 45.53990859 19.55996103a33.95993203 33.95993203 0 0 0 20.09996016-44.33991152L798.73852695 83.90115635z m-33.53993261 106.67978613l32.27993526 128.57974278h-64.97986993l32.69993467-128.57974278z m-300.2994 520.97895879l-81.65983623 100.55979844V102.20112002C383.29935752 80.00116367 364.99939385 62.00119971 342.49943867 62.00119971c-22.49995518 0-40.73991856 17.99996396-40.73991856 40.19992031v709.91857969l-81.65983623-100.55979844a41.09991768 41.09991768 0 0 0-57.29988515-6.17998799 39.8999206 39.8999206 0 0 0-6.29998769 56.57988692l147.89970439 181.97963613a48.89990215 48.89990215 0 0 0 38.15992353 18.05996338c14.87996982 0 28.79994199-6.59998652 38.09992413-18.05996338l147.89970351-181.97963613a39.8999206 39.8999206 0 0 0-6.29998681-56.57988692 41.09991768 41.09991768 0 0 0-57.29988604 6.17998799z"/></svg>