<svg class="icon" style="width: 1.01171875em;height: 1em;vertical-align: middle;fill: currentColor;overflow: hidden;" viewBox="0 0 1036 1024" version="1.1" xmlns="http://www.w3.org/2000/svg"><path d="M159.5472 86.45759999c-47.2416 0-88.5792 42.4464-88.5792 90.9648v667.1424c0 48.5184 41.3376 90.9648 88.5792 90.9648s88.5792-42.4464 88.5792-90.9648V177.42239999c-0.0912-48.5232-41.424-90.9648-88.5792-90.9648z m773.3952 497.7936l-407.1696 332.4816c-35.4 28.9008-83.8224 18.264-108.1536-23.784-8.9136-15.4032-13.6848-33.6432-13.6848-52.3296V175.64639999c0-51.0192 34.8288-92.3808 77.784-92.376 15.7344 0 31.0896 5.6688 44.0544 16.2528l407.1696 332.4816c35.4 28.9056 44.3616 86.424 20.0208 128.4672-5.3904 9.3168-12.1728 17.3808-20.0208 23.7792z" /></svg>