<svg class="icon" style="width: 1em;height: 1em;vertical-align: middle;fill: currentColor;overflow: hidden;" viewBox="0 0 1024 1024" version="1.1" xmlns="http://www.w3.org/2000/svg"><path d="M683.38671875 248.328125h-448.2421875A65.99707031 65.99707031 0 0 0 169.2265625 314.24609375v500.9765625C169.2265625 851.58300781 198.81054687 881.140625 235.14453125 881.140625h448.2421875c36.36035156 0 65.91796875-29.55761719 65.91796875-65.91796875v-500.9765625C749.3046875 277.91210937 719.74707031 248.328125 683.38671875 248.328125z m13.18359375 566.89453125c0 7.25097656-5.93261719 13.18359375-13.18359375 13.18359375h-448.2421875a13.18359375 13.18359375 0 0 1-13.18359375-13.18359375v-500.9765625a13.18359375 13.18359375 0 0 1 13.18359375-13.18359375h448.2421875a13.18359375 13.18359375 0 0 1 13.18359375 13.18359375v500.9765625z"  /><path d="M788.85546875 142.859375h-448.2421875a26.3671875 26.3671875 0 0 0 0 52.734375h448.2421875a13.18359375 13.18359375 0 0 1 13.18359375 13.18359375v500.9765625a26.3671875 26.3671875 0 1 0 52.734375 0v-500.9765625C854.7734375 172.44335937 825.21582031 142.859375 788.85546875 142.859375z"  /><path d="M591.1015625 386.75585937H327.4296875a26.3671875 26.3671875 0 0 0 0 52.73437501h263.671875a26.3671875 26.3671875 0 1 0 0-52.734375zM591.1015625 518.59179688H327.4296875a26.3671875 26.3671875 0 1 0 0 52.73437499h263.671875a26.3671875 26.3671875 0 1 0 0-52.734375zM485.6328125 649.3203125H327.4296875a26.3671875 26.3671875 0 1 0 0 52.734375h158.203125a26.3671875 26.3671875 0 1 0 0-52.734375z"  /></svg>