<svg class="icon" style="width: 1em;height: 1em;vertical-align: middle;fill: currentColor;overflow: hidden;" viewBox="0 0 1024 1024" version="1.1" xmlns="http://www.w3.org/2000/svg"><path d="M512 782c-231.95625 0-420-67.153125-420-150v150c0 82.846875 188.04375 150 420 150s420-67.153125 420-150V632c0 82.846875-188.04375 150-420 150z"  /><path d="M512 602c-231.95625 0-420-67.153125-420-150v150c0 82.846875 188.04375 150 420 150s420-67.153125 420-150V452c0 82.846875-188.04375 150-420 150z"  /><path d="M512 422c-231.95625 0-420-67.153125-420-150v150c0 82.846875 188.04375 150 420 150s420-67.153125 420-150V272c0 82.846875-188.04375 150-420 150z"  /><path d="M92 242a420 150 0 1 0 840 0 420 150 0 1 0-840 0Z"  /></svg>