<svg class="icon" style="width: 1em;height: 1em;vertical-align: middle;fill: currentColor;overflow: hidden;" viewBox="0 0 1024 1024" version="1.1" xmlns="http://www.w3.org/2000/svg"><path d="M128 128h768v768H128z" fill="#40B6E0" fill-opacity=".6" /><path d="M691.968 704V422.912l-62.464 15.36L613.12 373.76l102.912-30.72h53.76V704h-77.824z m-284.288 6.144c-95.744 0-158.72-80.384-158.72-184.32V524.8c0-103.936 64.512-185.344 159.744-185.344 94.72 0 158.72 80.384 158.72 184.32V524.8c0 103.936-64 185.344-159.744 185.344z m1.408-71.168c47.616 0 77.824-48.128 77.824-113.152V524.8c0-65.024-31.744-114.176-78.848-114.176S330.24 458.24 330.24 523.776V524.8c0 65.536 31.232 114.176 78.848 114.176z" fill="#231F20" fill-opacity=".7" /></svg>