<svg class="icon" style="width: 1em;height: 1em;vertical-align: middle;fill: currentColor;overflow: hidden;" viewBox="0 0 1024 1024" version="1.1" xmlns="http://www.w3.org/2000/svg"><path d="M467.171556 836.266667v86.357333a341.560889 341.560889 0 0 1-255.829334-176.184889 142.791111 142.791111 0 0 0-58.026666 66.332445h-0.170667a42.666667 42.666667 0 1 1-78.279111-33.678223 228.465778 228.465778 0 0 1 105.415111-112.981333 342.129778 342.129778 0 0 1-9.898667-81.92V468.423111A228.465778 228.465778 0 0 1 74.865778 360.846222a42.666667 42.666667 0 0 1 78.279111-33.735111h0.170667c5.973333 13.994667 14.108444 26.794667 24.007111 38.058667a170.894222 170.894222 0 0 1 137.443555-120.32C329.102222 162.645333 411.875556 99.555556 511.715556 99.555556c99.896889 0 182.613333 63.089778 196.892444 145.294222a170.894222 170.894222 0 0 1 137.500444 120.32c9.898667-11.264 18.033778-24.064 24.007112-38.058667h0.227555a42.666667 42.666667 0 1 1 79.075556 31.459556 228.295111 228.295111 0 0 1-96.369778 109.795555v29.411556h-85.333333V413.525333a85.333333 85.333333 0 0 0-85.333334-85.333333H553.927111v172.828444a113.891556 113.891556 0 0 0-85.333333 92.501334V328.192H341.048889a85.333333 85.333333 0 0 0-85.333333 85.333333v170.666667A256.056889 256.056889 0 0 0 467.171556 836.266667zM417.393778 242.915556h188.643555c-13.312-33.735111-50.517333-57.969778-94.321777-57.969778-43.804444 0-81.009778 24.234667-94.321778 57.969778z m180.679111 311.808h312.888889a42.666667 42.666667 0 0 1 0 85.333333h-312.888889a42.666667 42.666667 0 1 1 0-85.333333z m0 142.222222h312.888889a42.666667 42.666667 0 0 1 0 85.333333h-312.888889a42.666667 42.666667 0 1 1 0-85.333333z m0 142.222222h312.888889a42.666667 42.666667 0 0 1 0 85.333333h-312.888889a42.666667 42.666667 0 1 1 0-85.333333z" /></svg>