<svg class="icon" style="width: 1.06640625em;height: 1em;vertical-align: middle;fill: currentColor;overflow: hidden;" viewBox="0 0 1092 1024" version="1.1" xmlns="http://www.w3.org/2000/svg"><path d="M888.79889727 892.58009258h-173.09976855l204.77972636-261.59965136a31.7399581 31.7399581 0 0 0 2.69999648-35.99995167 39.41994727 39.41994727 0 0 0-34.319954-18.71997539H641.23922744c-21.35997158 0-38.69994815 15.5999795-38.69994814 34.73995342 0 19.19997422 17.33997656 34.73995342 38.69994814 34.7399543h173.15976973l-204.83972754 261.59965136a31.7399581 31.7399581 0 0 0-2.63999619 35.99995166c6.59999092 11.39998448 19.85997393 18.6599751 34.319954 18.6599751h247.61967012c21.35997158 0 38.69994815-15.5999795 38.69994814-34.73995342 0-19.13997481-17.39997685-34.67995401-38.69994814-34.679954zM798.79901768 83.90117041A35.21995313 35.21995313 0 0 0 765.91906104 62.00119971a35.21995313 35.21995313 0 0 0-32.81995547 21.71997158L604.99927637 400.94074795a33.95995489 33.95995489 0 0 0 19.85997305 44.39994082 35.21995313 35.21995313 0 0 0 45.59993964-19.31997393l23.21996836-57.35992412h143.03980987l22.79996894 57.05992441c7.01999033 17.63997627 27.41996338 26.39996455 45.53993935 19.55997422a33.95995489 33.95995489 0 0 0 20.09997335-44.3399414L798.73901738 83.90117041z m-33.53995547 106.67985821l32.27995722 128.5798289h-64.97991386l32.69995664-128.5798289z m-300.29959952 121.7998371L383.29957197 211.94100019V921.80005332c0 22.19997041-18.23997568 40.25994609-40.79994609 40.25994697-22.49997011 0-40.7399458-17.99997627-40.7399458-40.19994667V211.82100049L220.09978935 312.44086602a41.09994492 41.09994492 0 0 1-57.29992382 6.1799915 39.89994697 39.89994697 0 0 1-6.29999121-56.57992383L304.39967715 80.06117627A48.89993467 48.89993467 0 0 1 342.55962617 62.00119971c14.87998037 0 28.79996133 6.59999092 38.09994873 18.05997656l147.89980283 181.97975742a39.89994697 39.89994697 0 0 1-6.2999912 56.57992383 41.09994492 41.09994492 0 0 1-57.29992384-6.1799915z" /></svg>