<svg class="icon" style="width: 1em;height: 1em;vertical-align: middle;fill: currentColor;overflow: hidden;" viewBox="0 0 1024 1024" version="1.1" xmlns="http://www.w3.org/2000/svg"><path d="M512 192C308.352 192 134.4 324.672 64 512c70.4 187.328 244.352 320 448 320s377.6-132.672 448-320c-70.4-187.328-244.352-320-448-320z m0 544A224.064 224.064 0 0 1 288 512c0-123.648 100.352-224 224-224s224 100.352 224 224-100.352 224-224 224zM512 384c-70.848 0-128 57.152-128 128s57.152 128 128 128 128-57.152 128-128-57.152-128-128-128z" fill="#6E6E6E" /></svg>