<svg class="icon" style="width: 1em;height: 1em;vertical-align: middle;fill: currentColor;overflow: hidden;" viewBox="0 0 1024 1024" version="1.1" xmlns="http://www.w3.org/2000/svg"><path d="M589.78017394 808.98865493l-36.46282752 72.99038322a72.27838691 72.27838691 0 0 1-115.75329679 18.77080519L123.22858098 586.43595037a72.27838691 72.27838691 0 0 1 18.77080519-115.75329679l73.0119589-36.50597888 218.71224035-218.69066581a96.37837483 96.37837483 0 0 1 136.29330432 0l51.09111125 51.1126858 136.31488-136.29330432a96.37837483 96.37837483 0 0 1 136.29330432 136.29330432l-136.31488 136.29330432 51.13426148 51.11268693a96.37837483 96.37837483 0 0 1 0 136.29330432L589.78017394 808.98865493zM224.52620061 483.28282567l-60.95117654 30.48637668a24.09998791 24.09998791 0 0 0-6.25693468 38.57724074L471.61040555 866.70348629a24.09998791 24.09998791 0 0 0 38.59881642-6.25693468l30.464801-60.97275222L224.52620061 483.30440135z m106.97201322-97.45715541l-68.13586432 68.15744 306.65454023 306.65454023 68.13586432-68.15744-306.65454023-306.65454023z m136.29330432-136.29330432l-102.20379705 102.22537159 306.65454137 306.65454137 102.20379591-102.20379705a48.17839901 48.17839901 0 0 0 0-68.15744L535.94895815 249.53236594a48.17839901 48.17839901 0 0 0-68.15744 0z m323.69929444-85.18061853l-136.29330432 136.29330432 68.15744 68.15744 136.27172864-136.29330432a48.17839901 48.17839901 0 0 0-68.13586432-68.15744z" /></svg>