<svg class="icon" style="width: 1em;height: 1em;vertical-align: middle;fill: currentColor;overflow: hidden;" viewBox="0 0 1024 1024" version="1.1" xmlns="http://www.w3.org/2000/svg"><path d="M863.35488 160.64512C769.49504 66.80576 644.7104 15.11424 512 15.11424S254.50496 66.80576 160.64512 160.64512 15.11424 379.2896 15.11424 512c0 96.70656 27.81184 190.44352 80.40448 271.07328 10.42432 15.9744 31.82592 20.50048 47.8208 10.07616 15.9744-10.42432 20.50048-31.8464 10.07616-47.8208C108.17536 675.9424 84.23424 595.23072 84.23424 512c0-235.86816 191.8976-427.76576 427.76576-427.76576 235.88864 0 427.76576 191.8976 427.76576 427.76576S747.86816 939.76576 512 939.76576c-78.09024 0-154.50112-21.23776-220.9792-61.44-16.34304-9.85088-37.5808-4.62848-47.45216 11.71456-9.87136 16.32256-4.62848 37.5808 11.71456 47.43168 77.23008 46.6944 166.01088 71.39328 256.7168 71.39328 132.7104 0 257.49504-51.67104 351.35488-145.5104C957.19424 769.47456 1008.88576 644.7104 1008.88576 512S957.19424 254.50496 863.35488 160.64512L863.35488 160.64512 863.35488 160.64512zM492.89216 171.90912c-24.18688 0-43.74528 19.59936-43.74528 43.76576L449.14688 530.432c0 1.49504 0.4096 2.99008 0.57344 4.48512 2.21184 22.05696 21.01248 38.37952 43.68384 38.37952l0 0 0.16384-0.94208 248.19712 0c24.20736 0 43.80672-19.53792 43.80672-43.7248s-19.59936-43.74528-43.80672-43.74528L536.61696 484.88448 536.61696 215.67488C536.61696 191.50848 517.07904 171.90912 492.89216 171.90912L492.89216 171.90912 492.89216 171.90912zM492.89216 171.90912" /></svg>