<svg class="icon" style="width: 1em;height: 1em;vertical-align: middle;fill: currentColor;overflow: hidden;" viewBox="0 0 1024 1024" version="1.1" xmlns="http://www.w3.org/2000/svg"><path d="M846.6 868.8H188.5v-67.5c0-17.7-14.3-32-32-32s-32 14.3-32 32v67.5c0 35.3 28.6 64 64 64h658.1c35.3 0 64-28.7 64-64v-67.5c0-17.7-14.3-32-32-32s-32 14.3-32 32v67.5zM596.9 96.4H188.5c-35.3 0-64 28.7-64 64v180c0 17.7 14.3 32 32 32s32-14.3 32-32v-180h379.4l278.8 138.2v41.8c0 17.7 14.3 32 32 32s32-14.3 32-32v-65.9L596.9 96.4zM218.3 587.8c0 33.6-7.7 59.3-23.2 77.2-15.5 17.9-37.6 26.9-66.5 26.9-12.8 0-24.7-2.2-35.6-6.6v-51c9.4 7.1 20.1 10.7 32.1 10.7 26 0 39-19.7 39-59.2V433.5h54.1v154.3zM248.2 623.6c20.4 16.9 43.7 25.4 69.7 25.4 14.8 0 25.9-2.5 33.3-7.6 7.4-5.1 11.2-11.6 11.2-19.6 0-6.9-3-13.4-8.9-19.5s-21.5-14.4-46.7-24.9c-39.7-16.8-59.5-41.3-59.5-73.5 0-23.6 9-42 27-55 18-13.1 41.8-19.6 71.4-19.6 24.8 0 45.6 3.2 62.5 9.7v50.8c-17.1-11.6-37-17.4-59.9-17.4-13.3 0-24 2.4-32 7.3s-12 11.4-12 19.6c0 6.6 2.7 12.6 8.2 18.1 5.5 5.5 19 13 40.5 22.4 25.3 10.8 42.6 22.2 52.1 34.3 9.5 12 14.2 26.3 14.2 43 0 24.4-8.6 43-25.9 55.8-17.3 12.8-41.8 19.2-73.6 19.2-29.1 0-52.9-4.7-71.5-14.1v-54.4zM431.2 563.9c0-39.8 11.6-72.2 34.8-97.2 23.2-25 53.9-37.5 92.1-37.5 36.3 0 65.5 12.1 87.7 36.2 22.1 24.2 33.2 55.2 33.2 93.1 0 39.6-11.5 71.7-34.5 96.3-23 24.7-53.2 37-90.4 37-36.4 0-66-11.9-88.7-35.8-22.9-23.8-34.2-54.5-34.2-92.1z m56.9-3c0 24.7 6 44.9 17.9 60.6 11.9 15.7 28.3 23.5 49 23.5 21.2 0 37.7-7.5 49.5-22.5 11.8-15 17.7-35.2 17.7-60.6 0-26.5-5.7-47.4-17.2-62.7-11.5-15.4-27.7-23-48.5-23-21.2 0-37.9 7.9-50.1 23.6-12.2 15.7-18.3 36.1-18.3 61.1zM932.9 687.5h-55.4L769.9 523.2c-5.6-8.5-9.6-15.4-12.1-20.7h-0.8c1 8.7 1.5 22.2 1.5 40.5v144.5h-51.3v-254h59l103.6 159.7c6.9 10.6 11.1 17.3 12.6 20.2h0.8c-1.1-6.1-1.6-17.8-1.6-35.1V433.5h51.3v254z" /></svg>