<svg class="icon" style="width: 1em;height: 1em;vertical-align: middle;fill: currentColor;overflow: hidden;" viewBox="0 0 1024 1024" version="1.1" xmlns="http://www.w3.org/2000/svg"><path d="M512.06840818 738.00766035a28.32535878 28.32535878 0 0 1-28.32535879-28.17469193v-84.8254095a28.32535878 28.32535878 0 0 1 56.50005072 0v84.8254095a28.17469193 28.17469193 0 0 1-28.17469194 28.17469192z"  /><path d="M794.56866099 907.5078125H229.56815459A84.8254095 84.8254095 0 0 1 144.74274587 822.83306985V512.00745826a84.8254095 84.8254095 0 0 1 84.82540872-84.67474265h565.0005064a84.67474265 84.67474265 0 0 1 84.67474264 84.67474265v310.82561159a84.67474265 84.67474265 0 0 1-84.67474264 84.67474265zM229.56815459 483.83276632a28.32535878 28.32535878 0 0 0-28.32535877 28.17469193v310.8256116a28.32535878 28.32535878 0 0 0 28.32535877 28.17469193h565.0005064A28.17469193 28.17469193 0 0 0 822.74335291 822.83306985V512.00745826a28.17469193 28.17469193 0 0 0-28.17469193-28.17469193z"  /><path d="M709.74325226 483.83276632a28.32535878 28.32535878 0 0 1-28.17469194-28.32535878v-114.80810283c0-95.97475233-90.4000813-167.69214998-171.00681984-167.69215075a165.73348175 165.73348175 0 0 0-167.99348446 167.39081706v115.10943652a28.32535878 28.32535878 0 1 1-56.5000507 0v-115.10943652A221.93219876 221.93219876 0 0 1 510.56174048 116.50710325c107.57609647 0 227.50687057 92.05741584 227.50687056 224.19220147v114.80810282a28.32535878 28.32535878 0 0 1-28.32535877 28.32535879z"  /></svg>