<svg class="icon" style="width: 1em;height: 1em;vertical-align: middle;fill: currentColor;overflow: hidden;" viewBox="0 0 1024 1024" version="1.1" xmlns="http://www.w3.org/2000/svg"><path d="M482.66779062 506.88842L488.82426031 214.76338437l-91.97580937 91.97580938c-11.71565437 11.71565437-30.7107525 11.71565437-42.42640688 0-11.71565437-11.71565437-11.71565437-30.7107525 0-42.42640688l136.55999625-136.55999718c11.71565437-11.71565437 30.7107525-11.71565437 42.42640688 0l136.55999718 136.55999719c11.71565437 11.71565437 11.71565437 30.7107525 0 42.42640687-11.71565437 11.71565437-30.7107525 11.71565437-42.42640687 0L542.19535438 221.39251062 542.19336594 507.55000719l286.15815937 0L742.94650531 422.14498719c-11.71565437-11.71565437-11.71565437-30.7107525 0-42.42640688 11.71565437-11.71565437 30.7107525-11.71565437 42.42640688 0l136.55999718 136.55999719c11.71565437 11.71565437 11.71565437 30.7107525 0 42.42640688l-136.55999718 136.55999624c-11.71565437 11.71565437-30.7107525 11.71565437-42.42640688 0-11.71565437-11.71565437-11.71565437-30.7107525 0-42.42640687L828.23418969 567.55088938 542.19469156 567.55022656l0 286.32256219L627.54071187 768.5267675c11.71565437-11.71565437 30.7107525-11.71565437 42.42640688 0 11.71565437 11.71565437 11.71565437 30.7107525 0 42.42640688l-136.55999719 136.55999718c-11.71565437 11.71565437-30.7107525 11.71565437-42.42640687 0l-136.55999719-136.55999719c-11.71565437-11.71565437-11.71565437-30.7107525 0-42.42640687 11.71565437-11.71565437 30.7107525-11.71565437 42.42640688 0L482.19447125 853.87411438 482.19447125 566.88731469 195.49206031 566.8879775l85.28768438 85.28768437c11.71565437 11.71565437 11.71565437 30.7107525 0 42.42640688-11.71565437 11.71565437-30.7107525 11.71565437-42.42640688 0l-136.55999719-136.55999719c-11.71565437-11.71565437-11.71565437-30.7107525 0-42.42640687l136.55999719-136.55999719c11.71565437-11.71565437 30.7107525-11.71565437 42.42640688 0 11.71565437 11.71565437 11.71565437 30.7107525 0 42.42640688L195.37406187 506.88775719l287.29306594 0z" /></svg>