<svg class="icon" style="width: 1em;height: 1em;vertical-align: middle;fill: currentColor;overflow: hidden;" viewBox="0 0 1024 1024" version="1.1" xmlns="http://www.w3.org/2000/svg"><path d="M391.5359375 194.21520833333332c22.66875 0 41.11125 18.4425 41.11125 41.11125v210.5128125c0 22.66875-18.4425 41.11125-41.11125 41.11125h-217.02374999999998c-22.66875 0-41.11125-18.4425-41.11125-41.11125v-210.5128125c0-22.66875 18.4425-41.11125 41.11125-41.11125h217.02374999999998M391.5359375 155.02770833333332h-217.02374999999998c-44.3484375 0-80.29781249999999 35.95125-80.29781249999999 80.29875v210.5128125c0 44.3484375 35.95125 80.29875 80.29781249999999 80.29875h217.02374999999998c44.3484375 0 80.29781249999999-35.95125 80.29781249999999-80.29875v-210.5128125c0.0009375-44.3484375-35.9503125-80.29875-80.29781249999999-80.29875v0z"  /><path d="M391.5359375 617.4158333333334c22.66875 0 41.11125 18.4425 41.11125 41.11125v210.5128125c0 22.66875-18.4425 41.11125-41.11125 41.11125h-217.02374999999998c-22.66875 0-41.11125-18.4425-41.11125-41.11125v-210.51375000000002c0-22.66875 18.4425-41.11125 41.11125-41.11125h217.02374999999998M391.5359375 578.2283333333334h-217.02374999999998c-44.3484375 0-80.29781249999999 35.95125-80.29781249999999 80.29875v210.5128125c0 44.3484375 35.95125 80.29875 80.29781249999999 80.29875h217.02374999999998c44.3484375 0 80.29781249999999-35.95125 80.29781249999999-80.29875v-210.51375000000002c0.0009375-44.347500000000004-35.9503125-80.29781249999999-80.29781249999999-80.29781249999999v0z"  /><path d="M812.5662500000001 194.21520833333332c22.66875 0 41.11125 18.4425 41.11125 41.11125v210.5128125c0 22.66875-18.4425 41.11125-41.11125 41.11125h-217.02374999999998c-22.66875 0-41.11125-18.4425-41.11125-41.11125v-210.5128125c0-22.66875 18.4425-41.11125 41.11125-41.11125h217.02374999999998M812.5662500000001 155.02770833333332h-217.02374999999998c-44.3484375 0-80.29781249999999 35.95125-80.29781249999999 80.29875v210.5128125c0 44.3484375 35.95125 80.29875 80.29781249999999 80.29875h217.02374999999998c44.347500000000004 0 80.29781249999999-35.95125 80.29781249999999-80.29875v-210.5128125c0.0009375-44.3484375-35.9503125-80.29875-80.29781249999999-80.29875v0z"  /><path d="M925.2481250000001 963.7536458333334l-72.87468750000001-72.781875c27.576562499999998-33.14625 44.167500000000004-75.755625 44.167500000000004-122.24249999999999 0-105.63-85.629375-191.25937499999998-191.25937499999998-191.25937499999998s-191.26125 85.6303125-191.26125 191.25937499999998c0 105.63 85.6303125 191.25937499999998 191.26125 191.25937499999998 45.02625 0 86.41125-15.567187500000001 119.0859375-41.6025l73.18781249999999 73.09406249999999c3.8259375 3.8212499999999996 8.8359375 5.73 13.8459375 5.73 5.0175 0 10.037812500000001-1.91625 13.86375-5.7478125 7.648124999999999-7.6565625 7.640625-20.0634375-0.0159375-27.710625zM597.7503125 876.2614583333333c-28.723125000000003-28.723125000000003-44.541562500000005-66.91125-44.541562500000005-107.53125s15.817499999999999-78.8090625 44.541562500000005-107.53125c28.7221875-28.7221875 66.91125-44.541562500000005 107.53125-44.541562500000005 40.6190625 0 78.808125 15.817499999999999 107.5303125 44.541562500000005 28.7221875 28.7221875 44.540625 66.91125 44.540625 107.53125s-15.817499999999999 78.8090625-44.541562500000005 107.53125c-28.7221875 28.7221875-66.91125 44.541562500000005-107.5303125 44.541562500000005-40.618125-0.0009375-78.80718750000001-15.818437500000002-107.5303125-44.541562500000005z"  /></svg>