<svg class="icon" style="width: 1em;height: 1em;vertical-align: middle;fill: currentColor;overflow: hidden;" viewBox="0 0 1024 1024" version="1.1" xmlns="http://www.w3.org/2000/svg"><path d="M245.4 314v350"  /><path d="M245.4 691.3c-16.6 0-30.1-12.2-30.1-27.3V314c0-15.1 13.5-27.3 30.1-27.3s30.1 12.2 30.1 27.3v350c0 15.1-13.4 27.3-30.1 27.3z"  /><path d="M245.4 144.2v37.6"  /><path d="M245.4 211.9c-16.6 0-30.1-13.5-30.1-30.1v-37.5c0-16.6 13.5-30.1 30.1-30.1s30.1 13.5 30.1 30.1v37.5c0 16.6-13.4 30.1-30.1 30.1z"  /><path d="M498.7 468.2V664"  /><path d="M498.7 691.3c-16.6 0-30.1-12.2-30.1-27.3V442.7c0-15.1 13.5-27.3 30.1-27.3s30.1 12.2 30.1 27.3V664c0 15.1-13.5 27.3-30.1 27.3z"  /><path d="M498.7 144.2V369.3"  /><path d="M498.7 324.1c-16.6 0-30.1-13.5-30.1-30.1V144.3c0-16.6 13.5-30.1 30.1-30.1s30.1 13.5 30.1 30.1v149.8c0 16.6-13.5 30-30.1 30z"  /><path d="M753.8 629.6V664"  /><path d="M753.8 691.3c-16.6 0-30.1-12.2-30.1-27.3v-68.5c0-15.1 13.5-27.3 30.1-27.3s30.1 12.2 30.1 27.3V664c0 15.1-13.5 27.3-30.1 27.3z"  /><path d="M753.8 144.2v392.1"  /><path d="M753.8 510c-16.6 0-30.1-13.5-30.1-30.1V144.3c0-16.6 13.5-30.1 30.1-30.1s30.1 13.5 30.1 30.1V480c0 16.5-13.5 30-30.1 30z"  /><path d="M244.4 339c-49.1 0-89-39.9-89-89s39.9-89 89-89 89 39.9 89 89-39.9 89-89 89z m0-117.8c-15.9 0-28.8 12.9-28.8 28.8s12.9 28.8 28.8 28.8 28.8-12.9 28.8-28.8c0-15.8-12.9-28.8-28.8-28.8z"  /><path d="M498.1 470.1c-49.1 0-89-39.9-89-89s39.9-89 89-89 89 39.9 89 89c-0.1 49.1-40 89-89 89z m0-117.7c-15.9 0-28.8 12.9-28.8 28.8s12.9 28.8 28.8 28.8 28.8-12.9 28.8-28.8-13-28.8-28.8-28.8z"  /><path d="M751.9 629.5c-49.1 0-89-39.9-89-89s39.9-89 89-89 89 39.9 89 89-39.9 89-89 89z m0-117.8c-15.9 0-28.8 12.9-28.8 28.8s12.9 28.8 28.8 28.8 28.8-12.9 28.8-28.8-12.9-28.8-28.8-28.8z"  /><path d="M248.4 798.2h472.5"  /><path d="M720.9 830.2H248.4c-17.7 0-32-14.3-32-32s14.3-32 32-32H721c17.7 0 32 14.3 32 32s-14.4 32-32.1 32z"  /><path d="M702.2 903.5c-8.2 0-16.4-3.1-22.6-9.4-12.5-12.5-12.5-32.8 0-45.3l61.2-61.2-58.6-50.3c-13.4-11.5-14.9-31.7-3.4-45.1 11.5-13.4 31.7-14.9 45.1-3.4l67.4 57.8 0.9 0.9c21.9 21.9 21.9 57.4 0 79.3l-67.3 67.3c-6.4 6.3-14.6 9.4-22.7 9.4z"  /></svg>