<svg class="icon" viewBox="0 0 1024 1024" version="1.1" xmlns="http://www.w3.org/2000/svg" width="32" height="32"><path d="M622.439215 124.087882c10.998926 0 19.998047 8.999121 19.998047 19.998047v235.976955h237.97676c10.998926 0 19.998047 8.999121 19.998047 19.998048v479.953129c0 10.998926-8.999121 19.998047-19.998047 19.998047h-735.928132c-10.998926 0-19.998047-8.999121-19.998047-19.998047v-479.953129c0-10.998926 8.999121-19.998047 19.998047-19.998048h237.97676v-235.976955c0-10.998926 8.999121-19.998047 19.998047-19.998047h219.978518m0-59.994141h-219.978518c-44.195684 0-79.992188 35.796504-79.992188 79.992188v175.982814h-177.982619c-44.195684 0-79.992188 35.796504-79.992188 79.992189v479.953129c0 44.195684 35.796504 79.992188 79.992188 79.992188h735.928132c44.195684 0 79.992188-35.796504 79.992188-79.992188v-479.953129c0-44.195684-35.796504-79.992188-79.992188-79.992189h-177.982619v-175.982814c0-44.195684-35.796504-79.992188-79.992188-79.992188z" p-id="3921"></path><path d="M642.437262 320.068743h-259.974612v59.994141h259.974612v-59.994141z" p-id="3922"></path><path d="M512.449956 520.049214c33.096768 0 59.994141 26.897373 59.994141 59.994141 0 27.397324-18.498194 51.294991-44.995606 58.094327l-14.998535 3.899619-14.998535-3.899619c-26.497412-6.799336-44.995606-30.697002-44.995606-58.094327 0-33.096768 26.897373-59.994141 59.994141-59.994141m0-59.994141c-66.293526 0-119.988282 53.694756-119.988282 119.988282 0 55.894542 38.19627 102.889952 89.991211 116.188654v129.787325h59.994142V696.331999c51.794942-13.298701 89.991212-60.294112 89.991211-116.188654 0-66.293526-53.794747-120.088273-119.988282-120.088272z"></path></svg>