<svg class="icon" style="width: 1em;height: 1em;vertical-align: middle;fill: currentColor;overflow: hidden;" viewBox="0 0 1024 1024" version="1.1" xmlns="http://www.w3.org/2000/svg"><path d="M555.495118 885.939621l-6.933923 0.24764L548.561196 643.7343c0-7.093559-5.027503-12.125155-12.125155-12.125155l-45.456285 0c-7.097652 0-12.126178 5.031597-12.126178 12.125155l-0.082888 242.883773-9.008164-0.551562c-88.270393-6.983041-177.408549-66.661236-220.487693-109.735263-44.884256-44.88528-104.934934-135.588071-106.826004-220.48667l-3.031033-9.092076 242.456031 0c6.794753 0 11.103896-0.935302 12.122085-6.063089l0.438998-54.914704c-0.525979-4.831029-2.473331-7.996115-6.501064-8.730848l-248.930489-0.055259L142.449851 464.921775c0-74.489528 63.085804-173.695994 102.290711-212.900901 66.281589-66.284659 144.108119-100.359732 234.092549-114.777093l0.021489 242.821351c0 6.79373 2.399653 6.65149 6.063089 12.122085l54.552453 0 9.092076-6.062066L548.562219 137.608078l12.148691-0.021489c154.620543 7.504928 324.256058 178.709171 324.256058 336.426239L642.510938 474.012827c-9.31618 0-12.123109 8.880251-12.123109 18.187221l0 42.427298c0 7.067976 8.085142 15.155165 15.155165 15.155165l239.422951 0C884.965945 706.916295 704.984804 879.520421 555.495118 885.939621L555.495118 885.939621zM530.374998 958.920796c128.35125 0 239.764736-72.151273 305.34843-137.128147C905.449465 752.71334 960.734606 642.538055 960.734606 504.323157l0-9.093099c0-230.572376-209.28556-430.358585-445.51068-430.358585l-21.212114 0c-126.357849 0-239.207034 74.387197-303.82575 138.655943C122.170992 271.176143 66.682213 383.77871 66.682213 519.471159l0 12.124132c0 126.356826 74.389244 239.203964 138.65799 303.823704 67.64668 68.01814 180.25027 123.500778 315.945789 123.500778L530.374998 958.919772z" /></svg>