<svg class="icon" style="width: 1em;height: 1em;vertical-align: middle;fill: currentColor;overflow: hidden;" viewBox="0 0 1024 1024" version="1.1" xmlns="http://www.w3.org/2000/svg"><path d="M894.7576475 191.02117625L480.82823563 630.58823562v259.20000001a27.27529406 27.27529406 0 0 1-27.38823563 27.21882281 27.27529406 27.27529406 0 0 1-27.44470594-27.21882281v-269.92941188c0-6.83294156 2.65411781-13.49647031 7.3976475-18.52235344l396.98823469-421.49647031-665.78823469 383.26588219 173.87294063 33.54352969a27.1623525 27.1623525 0 1 1-10.50352969 53.30823562l-245.53411687-47.37882375a27.10588219 27.10588219 0 0 1-8.52705938-50.14588219L922.54117625 63.90588219c19.65176437-11.29411781 43.8776475 4.68705844 40.88470594 27.10588218L849.52470594 940.04705844a27.44470594 27.44470594 0 0 1-43.8776475 17.9576475l-252.70588219-192.56470594a27.04941188 27.04941188 0 0 1-5.0823525-38.1176475 27.5576475 27.5576475 0 0 1 38.45647031-5.02588219l215.15294157 163.93411782 93.28941187-695.26588219z" /></svg>