<svg class="icon" style="width: 1em;height: 1em;vertical-align: middle;fill: currentColor;overflow: hidden;" viewBox="0 0 1024 1024" version="1.1" xmlns="http://www.w3.org/2000/svg"><path d="M799.8125 92.9375H224.1875c-72.375 0-131.25 58.875-131.25 131.25v575.625c0 72.375 58.875 131.25 131.25 131.25h575.625c72.375 0 131.25-58.875 131.25-131.25V224.1875c0-72.375-58.875-131.25-131.25-131.25z m-430.6875 75h285.75v244.5c0 29.625-24.09375 53.8125-53.8125 53.8125H422.84375c-29.625 0-53.8125-24.09375-53.8125-53.8125V167.9375zM856.0625 799.8125c0 31.03125-25.21875 56.25-56.25 56.25H224.1875c-31.03125 0-56.25-25.21875-56.25-56.25V224.1875c0-31.03125 25.21875-56.25 56.25-56.25h69.9375v244.5c0 70.96875 57.75 128.8125 128.8125 128.8125h178.21875c70.96875 0 128.8125-57.75 128.8125-128.8125V167.9375H799.8125c31.03125 0 56.25 25.21875 56.25 56.25v575.625z"  /><path d="M570.40625 400.53125c20.71875 0 37.5-16.78125 37.5-37.5v-87.9375c0-20.71875-16.78125-37.5-37.5-37.5s-37.5 16.78125-37.5 37.5v87.9375c0 20.625 16.78125 37.5 37.5 37.5z"  /></svg>