<svg class="icon" style="width: 1em;height: 1em;vertical-align: middle;fill: currentColor;overflow: hidden;" viewBox="0 0 1024 1024" version="1.1" xmlns="http://www.w3.org/2000/svg"><path d="M933.888 270.848c0-90.112-73.216-162.816-162.816-162.816H292.352c-66.56 0-118.784 56.832-113.664 122.88l42.496 473.088H91.136l-1.024 53.76c0 84.48 66.56 153.6 150.016 157.696h424.448c98.304 0 177.664-79.36 177.664-177.664l-46.08-410.112h138.24V270.848zM171.52 834.56c-20.48-20.48-31.744-47.104-31.744-75.776v-4.608H225.28l10.24 111.104c-24.064-2.56-46.592-13.312-64-30.72z m620.544-93.696c-0.512 33.28-13.824 64-37.376 87.552-24.064 24.064-56.32 37.376-90.112 37.376h-378.88L228.352 226.816c-1.536-17.92 4.608-34.816 16.896-48.128 12.288-13.312 28.672-20.48 47.104-20.48h18.944c23.552 26.112 37.888 60.928 37.888 98.816 0 25.6-6.656 49.664-17.92 71.168h414.208l46.592 412.672z m92.16-462.848h-486.4c0.512-7.168 1.024-13.824 1.024-20.992 0-35.84-9.216-69.632-26.112-98.816h397.824c30.208 0 58.368 11.776 79.872 33.28 21.504 21.504 33.28 49.664 33.28 79.872v6.656z"  /><path d="M420.864 476.672l-87.552 103.936 87.552 103.936 19.968-16.896-73.216-87.552 73.216-87.552c0 1.024-19.968-15.872-19.968-15.872z m203.264 0l-19.968 16.896 73.216 87.552-73.216 87.552 19.968 16.896 87.552-103.936c-0.512-1.024-87.552-104.96-87.552-104.96z m-75.264 0.512L471.04 688.128l24.576 9.216L573.44 486.4l-24.576-9.216z"  /></svg>