<svg class="icon" style="width: 1em;height: 1em;vertical-align: middle;fill: currentColor;overflow: hidden;" viewBox="0 0 1024 1024" version="1.1" xmlns="http://www.w3.org/2000/svg"><path d="M911.2 381.3h-3.8c-64.1 0-116.2-52.1-116.2-116.2 0-21.2 10.1-44.2 10.1-44.4 9.9-22.3 2.3-49.6-17.7-63.6l-1.1-0.7-111.8-62-1.1-0.5c-6.6-2.9-13.9-4.3-21.6-4.3-16 0-31.5 6.4-41.7 17-13.7 14.1-56.7 50.7-91.4 50.7-35 0-78.4-37.3-92-51.6-10.3-10.9-26-17.3-42.1-17.3-7.6 0-14.7 1.4-21.2 4.2l-1.4 0.4-115.7 63.6-1.1 0.8c-20.1 14-27.8 41.2-17.9 63.5 0.1 0.2 10.1 23.5 10.1 44.5 0 64.1-52.1 116.2-116.2 116.2h-3.9c-18.7-0.5-33.9 16-38.8 41.5-0.4 2.1-9.4 50-9.4 87.6 0 37.7 9 85.6 9.4 87.6 4.8 25.3 19.7 41.6 38.1 41.6h4.6c64.1 0 116.2 52.1 116.2 116.2 0 21.2-10.1 44.2-10.1 44.4-9.9 22.3-2.3 49.6 17.7 63.6l1.1 0.7L352 926.3l1.1 0.5c6.6 2.9 13.8 4.4 21.6 4.4 16.1 0 31.8-6.6 42-17.7 12.9-14 57.6-53.9 93.4-53.9 36.1 0 80.2 39.6 94 54.9 10.2 11.3 26.1 18 42.2 18 7.6 0 14.6-1.4 21.2-4.2l1.2-0.5 113.5-63.2 1.1-0.8c20-14 27.7-41.3 17.8-63.5-0.1-0.2-10.1-23.5-10.1-44.5 0-64.1 52.1-116.2 116.2-116.2h3.9c18.7 0.4 33.9-16 38.8-41.5 0.4-2 9.4-49.9 9.4-87.6 0-37.6-8.9-85.5-9.3-87.5-4.8-25.7-20.1-42.2-38.8-41.7zM510.3 664.7c-85.3 0-154.8-69.5-154.8-154.8 0-85.3 69.5-154.8 154.8-154.8 85.3 0 154.8 69.5 154.8 154.8 0.1 85.4-69.4 154.8-154.8 154.8z"  /><path d="M511.8 432.1c-43.8 0-79.5 35.7-79.5 79.5s35.7 79.5 79.5 79.5 79.5-35.7 79.5-79.5-35.6-79.5-79.5-79.5z"  /></svg>