<svg class="icon" style="width: 1.1181640625em;height: 1em;vertical-align: middle;fill: currentColor;overflow: hidden;" viewBox="0 0 1145 1024" version="1.1" xmlns="http://www.w3.org/2000/svg"><path d="M577.075024 1023.780663c-196.379515 0-317.965195-30.122249-369.216885-90.366746a100.894911 100.894911 0 0 1-26.174187-73.112255c0-8.700358 18.936074-241.27044 34.070311-353.863311a117.564505 117.564505 0 0 0-23.469034-10.820614c-6.360766-2.120255-10.528165-4.53296-17.18138-6.580103-23.469034-10.820614-70.480213-34.947658-70.480213-34.947657a164.42946 164.42946 0 0 1-102.357156-106.890116 90.293634 90.293634 0 0 1 19.594084-79.034347l4.240511-4.240511 277.826567-249.093451a48.546537 48.546537 0 0 1 44.598475-10.820614 56.077099 56.077099 0 0 1 34.36276 32.75429 164.283236 164.283236 0 0 0 168.596858 109.156596c12.64842 0 21.348778 0 21.348779-2.120255h33.924086a158.288031 158.288031 0 0 0 164.42946-109.668382 46.938067 46.938067 0 0 1 34.07031-32.534953 48.765874 48.765874 0 0 1 44.890925 10.820614l271.027127 246.607634 4.240511 4.53296a90.366746 90.366746 0 0 1 17.181379 78.595673 165.233695 165.233695 0 0 1-102.357156 106.890116s-44.890924 24.053932-68.359958 34.947658a108.133024 108.133024 0 0 1-17.181379 6.580103 244.19493 244.19493 0 0 0-23.469034 11.186175c15.061124 111.130627 33.4123 345.089841 33.4123 355.910454a99.652003 99.652003 0 0 1-25.589289 69.822203c-50.59368 66.385927-167.792624 96.288839-361.978772 96.288839z m0 0" /></svg>