<svg class="icon" style="width: 1.2998046875em;height: 1em;vertical-align: middle;fill: currentColor;overflow: hidden;" viewBox="0 0 1331 1024" version="1.1" xmlns="http://www.w3.org/2000/svg"><path d="M226.5447591 162.54475911m33.33461339 0l66.66922753 0q33.33461339 0 33.3346134 33.33461339l0 66.66922753q0 33.33461339-33.33461341 33.3346134l-66.66922752 0q-33.33461339 0-33.33461339-33.33461341l0-66.66922752q0-33.33461339 33.33461339-33.33461339Z" fill="currentColor" /><path d="M426.55244094 162.54475911m33.3346134 0l600.0230455 0q33.33461339 0 33.33461339 33.33461339l0 66.66922753q0 33.33461339-33.33461339 33.3346134l-600.0230455 0q-33.33461339 0-33.3346134-33.33461341l0-66.66922752q0-33.33461339 33.3346134-33.33461339Z" fill="currentColor" /><path d="M226.5447591 429.22166774m33.33461339 0l66.66922753 0q33.33461339 0 33.3346134 33.33461412l0 66.66922681q0 33.33461339-33.33461341 33.3346141l-66.66922752 0q-33.33461339 0-33.33461339-33.3346141l0-66.66922681q0-33.33461339 33.33461339-33.33461412Z" fill="currentColor" /><path d="M426.55244094 429.22166774m33.3346134 0l600.0230455 0q33.33461339 0 33.33461339 33.33461412l0 66.66922681q0 33.33461339-33.33461339 33.3346141l-600.0230455 0q-33.33461339 0-33.3346134-33.3346141l0-66.66922681q0-33.33461339 33.3346134-33.33461412Z" fill="currentColor" /><path d="M226.5447591 695.89857708m33.33461339 0l66.66922753 0q33.33461339 0 33.3346134 33.33461341l0 66.66922752q0 33.33461339-33.33461341 33.3346134l-66.66922752 0q-33.33461339 0-33.33461339-33.3346134l0-66.66922752q0-33.33461339 33.33461339-33.33461341Z" fill="currentColor" /><path d="M426.55244094 695.89857708m33.3346134 0l600.0230455 0q33.33461339 0 33.33461339 33.33461341l0 66.66922752q0 33.33461339-33.33461339 33.3346134l-600.0230455 0q-33.33461339 0-33.3346134-33.3346134l0-66.66922752q0-33.33461339 33.3346134-33.33461341Z" fill="currentColor" /></svg>