<svg class="icon" style="width: 1em;height: 1em;vertical-align: middle;fill: currentColor;overflow: hidden;" viewBox="0 0 1024 1024" version="1.1" xmlns="http://www.w3.org/2000/svg"><path d="M719.3835244 186.11160469H304.6164756C239.43879653 186.11160469 186.11160469 239.43879653 186.11160469 304.6164756v414.7670488c0 65.17767906 53.32719185 118.5048709 118.5048709 118.50487091h414.76704882c65.17767906 0 118.5048709-53.32719185 118.5048709-118.50487091V304.6164756c0-65.17767906-53.32719185-118.5048709-118.5048709-118.50487091z m59.25243545 533.27191972c0 35.55146103-23.70097444 59.25243545-59.25243544 59.25243544H304.6164756c-35.55146103 0-59.25243545-23.70097444-59.25243545-59.25243544V304.6164756c0-35.55146103 23.70097444-59.25243545 59.25243544-59.25243545h414.76704881c35.55146103 0 59.25243545 23.70097444 59.25243545 59.25243544v414.76704881z"  /><path d="M393.4951291 482.37378195h237.0097418c17.77573084 0 29.62621805 11.85048723 29.62621806 29.62621805s-11.85048723 29.62621805-29.62621805 29.62621805h-237.00974181c-17.77573084 0-29.62621805-11.85048723-29.62621806-29.62621805s11.85048723-29.62621805 29.62621805-29.62621805z"  /></svg>