<svg class="icon" style="width: 1em;height: 1em;vertical-align: middle;fill: currentColor;overflow: hidden;" viewBox="0 0 1024 1024" version="1.1" xmlns="http://www.w3.org/2000/svg"><path d="M627.32796545 119.64992352c49.28854532 26.93396091 85.56202276 67.72655841 108.76017673 122.31753855l-56.51913923 22.59560439C662.63736377 223.77046897 635.64314807 193.3417211 598.58635669 173.27682453a180.82509082 180.82509082 0 0 0-120.5098907-18.85979746c-43.26305054 8.79722178-78.45193927 29.34415833-105.44615495 61.64080884C345.69635095 248.41474122 331.83771353 286.79714129 331.23516397 331.38580137v60.25494533h451.91209048c25.72886179 0.60254956 47.05911228 9.39977134 64.05100626 26.33141136 16.87138439 16.87138439 25.72886179 38.2618905 26.33141134 63.99075145V843.31181719c-0.60254956 25.668607-9.39977134 46.99885747-26.39166614 63.9907523-16.87138439 16.87138439-38.2618905 25.72886179-63.99075146 26.33141052h-542.2945089c-25.72886179-0.60254956-47.05911228-9.39977134-64.05100626-26.33141052-16.87138439-16.93164002-25.72886179-38.32214529-26.33141134-63.9907523V481.96290953c0.60254956-25.72886179 9.39977134-47.05911228 26.39166614-63.99075147 16.87138439-16.93164002 38.2618905-25.72886179 63.99075146-26.39166615H270.98021862v-60.25494535c1.20509913-58.92933664 19.64311222-110.08578543 55.07302012-153.34883596C361.54340143 134.65340444 408.42174851 106.75536523 466.80879119 94.22233652 524.53302871 84.09950522 578.03942014 92.65570782 627.32796545 119.58966791zM783.14725445 451.77518247h-542.2945089a29.34415833 29.34415833 0 0 0-21.69178007 8.4356922 29.28390353 29.28390353 0 0 0-8.43569219 21.69178006V843.31181719c0 8.73696698 2.83198261 15.96756089 8.43569219 21.63152528 5.66396521 5.66396521 12.89455828 8.4356922 21.69178007 8.4356922h542.2945089a29.34415833 29.34415833 0 0 0 21.69178007-8.4356922 29.28390353 29.28390353 0 0 0 8.43569219-21.69178006V482.0231643a29.28390353 29.28390353 0 0 0-8.43569219-21.69178005 29.34415833 29.34415833 0 0 0-21.69178007-8.43569221zM512 542.21785486c8.79722178 0 16.02781567 2.77172782 21.69178006 8.4356922 5.60370959 5.66396521 8.4356922 12.8343035 8.43569302 21.69178089V752.92939877a29.28390353 29.28390353 0 0 1-8.43569302 21.69178089 29.34415833 29.34415833 0 0 1-21.69178006 8.4356922 29.34415833 29.34415833 0 0 1-21.69178006-8.4356922 29.28390353 29.28390353 0 0 1-8.43569302-21.69178089V572.28507314c0-8.79722178 2.83198261-15.96756089 8.43569302-21.63152608a29.34415833 29.34415833 0 0 1 21.69178006-8.4356922z" /></svg>