<svg class="icon" style="width: 1em;height: 1em;vertical-align: middle;fill: currentColor;overflow: hidden;" viewBox="0 0 1024 1024" version="1.1" xmlns="http://www.w3.org/2000/svg"><path d="M776.99023438 884.56835938H250.96484375c-60.90820313 0-110.7421875-49.83398438-110.7421875-110.74218751v-526.02539062c0-60.90820313 49.83398438-110.7421875 110.7421875-110.7421875h446.92382813c17.40234375 0 31.640625 14.23828125 31.64062499 31.640625s-14.23828125 31.640625-31.640625 31.640625H250.96484375c-26.10351563 0-47.4609375 21.35742188-47.4609375 47.4609375v526.02539063c0 26.10351563 21.35742188 47.4609375 47.4609375 47.4609375h526.02539063c26.10351563 0 47.4609375-21.35742188 47.4609375-47.4609375v-348.04687501c0-17.40234375 14.23828125-31.640625 31.64062499-31.64062499s31.640625 14.23828125 31.64062501 31.64062499v348.04687501c0 60.90820313-49.43847655 110.7421875-110.7421875 110.7421875z" fill="currentColor" /><path d="M408.77246094 701.84375001c-7.91015625 0-16.21582031-3.1640625-22.54394532-9.0966797-12.26074219-12.26074219-12.26074219-32.43164063 0-44.69238281L833.94335938 200.33984375c12.26074219-12.26074219 32.43164063-12.26074219 44.69238281 0 12.26074219 12.26074219 12.26074219 32.43164063 0 44.69238281L431.31640625 692.74707031c-6.328125 5.93261719-14.23828125 9.09667969-22.54394531 9.0966797z" fill="currentColor" /></svg>